<mxfile host="app.diagrams.net" modified="2022-01-11T14:52:58.825Z" agent="5.0 (Windows NT 10.0; Win64; x64) AppleWebKit/537.36 (KHTML, like Gecko) Chrome/96.0.4664.110 Safari/537.36" etag="mpgpz_npb5RPC0xigy5a" version="16.2.4" type="github">
  <diagram id="k6yt1kKrw_bO8UbMWdBw" name="Page-1">
    <mxGraphModel dx="1422" dy="762" grid="1" gridSize="10" guides="1" tooltips="1" connect="1" arrows="1" fold="1" page="1" pageScale="1" pageWidth="1200" pageHeight="1920" math="0" shadow="0">
      <root>
        <mxCell id="0" />
        <mxCell id="1" parent="0" />
        <mxCell id="mZeBqSOWWQo7hRxgBl-N-1" value="Raspberry Pi" style="rounded=1;whiteSpace=wrap;html=1;" parent="1" vertex="1">
          <mxGeometry x="702.5" y="280" width="95" height="40" as="geometry" />
        </mxCell>
        <mxCell id="mZeBqSOWWQo7hRxgBl-N-2" value="TeplotnÃ­ sonda" style="rounded=0;whiteSpace=wrap;html=1;" parent="1" vertex="1">
          <mxGeometry x="640" y="200" width="100" height="40" as="geometry" />
        </mxCell>
        <mxCell id="mZeBqSOWWQo7hRxgBl-N-3" value="LED display" style="rounded=0;whiteSpace=wrap;html=1;" parent="1" vertex="1">
          <mxGeometry x="760" y="200" width="80" height="40" as="geometry" />
        </mxCell>
        <mxCell id="mZeBqSOWWQo7hRxgBl-N-9" value="" style="endArrow=none;startArrow=classic;html=1;entryX=0.5;entryY=1;entryDx=0;entryDy=0;startFill=1;endFill=0;" parent="1" source="fm2eszRsYVNUJjWPHx8R-2" target="mZeBqSOWWQo7hRxgBl-N-1" edge="1">
          <mxGeometry width="50" height="50" relative="1" as="geometry">
            <mxPoint x="750" y="365" as="sourcePoint" />
            <mxPoint x="750" y="330" as="targetPoint" />
            <Array as="points">
              <mxPoint x="750" y="340" />
            </Array>
          </mxGeometry>
        </mxCell>
        <mxCell id="mZeBqSOWWQo7hRxgBl-N-16" value="" style="endArrow=classic;html=1;exitX=0.5;exitY=1;exitDx=0;exitDy=0;entryX=0.25;entryY=0;entryDx=0;entryDy=0;" parent="1" source="mZeBqSOWWQo7hRxgBl-N-2" target="mZeBqSOWWQo7hRxgBl-N-1" edge="1">
          <mxGeometry width="50" height="50" relative="1" as="geometry">
            <mxPoint x="600" y="300" as="sourcePoint" />
            <mxPoint x="680" y="270" as="targetPoint" />
          </mxGeometry>
        </mxCell>
        <mxCell id="mZeBqSOWWQo7hRxgBl-N-17" value="" style="endArrow=classic;html=1;exitX=0.75;exitY=0;exitDx=0;exitDy=0;entryX=0.5;entryY=1;entryDx=0;entryDy=0;" parent="1" source="mZeBqSOWWQo7hRxgBl-N-1" target="mZeBqSOWWQo7hRxgBl-N-3" edge="1">
          <mxGeometry width="50" height="50" relative="1" as="geometry">
            <mxPoint x="860" y="260" as="sourcePoint" />
            <mxPoint x="910" y="210" as="targetPoint" />
          </mxGeometry>
        </mxCell>
        <mxCell id="fm2eszRsYVNUJjWPHx8R-8" style="edgeStyle=orthogonalEdgeStyle;rounded=0;orthogonalLoop=1;jettySize=auto;html=1;startArrow=none;startFill=0;endArrow=classic;endFill=1;" edge="1" parent="1" source="fm2eszRsYVNUJjWPHx8R-2" target="fm2eszRsYVNUJjWPHx8R-5">
          <mxGeometry relative="1" as="geometry" />
        </mxCell>
        <mxCell id="fm2eszRsYVNUJjWPHx8R-2" value="MQTT" style="ellipse;whiteSpace=wrap;html=1;" vertex="1" parent="1">
          <mxGeometry x="710" y="350" width="80" height="50" as="geometry" />
        </mxCell>
        <mxCell id="fm2eszRsYVNUJjWPHx8R-11" style="edgeStyle=orthogonalEdgeStyle;rounded=0;orthogonalLoop=1;jettySize=auto;html=1;startArrow=none;startFill=0;endArrow=classic;endFill=1;" edge="1" parent="1" source="fm2eszRsYVNUJjWPHx8R-5" target="fm2eszRsYVNUJjWPHx8R-9">
          <mxGeometry relative="1" as="geometry" />
        </mxCell>
        <mxCell id="fm2eszRsYVNUJjWPHx8R-5" value="Node-RED" style="rounded=1;whiteSpace=wrap;html=1;" vertex="1" parent="1">
          <mxGeometry x="590" y="352.5" width="80" height="45" as="geometry" />
        </mxCell>
        <mxCell id="fm2eszRsYVNUJjWPHx8R-13" style="edgeStyle=orthogonalEdgeStyle;rounded=0;orthogonalLoop=1;jettySize=auto;html=1;startArrow=none;startFill=0;endArrow=classic;endFill=1;" edge="1" parent="1" source="fm2eszRsYVNUJjWPHx8R-9" target="fm2eszRsYVNUJjWPHx8R-12">
          <mxGeometry relative="1" as="geometry" />
        </mxCell>
        <mxCell id="fm2eszRsYVNUJjWPHx8R-9" value="InfluxDB" style="rounded=1;whiteSpace=wrap;html=1;" vertex="1" parent="1">
          <mxGeometry x="470" y="352.5" width="80" height="45" as="geometry" />
        </mxCell>
        <mxCell id="fm2eszRsYVNUJjWPHx8R-12" value="Grafana" style="rounded=1;whiteSpace=wrap;html=1;" vertex="1" parent="1">
          <mxGeometry x="350" y="352.5" width="80" height="43.75" as="geometry" />
        </mxCell>
      </root>
    </mxGraphModel>
  </diagram>
</mxfile>
